<?xml version="1.0" encoding="UTF-8"?>
<!DOCTYPE svg PUBLIC "-//W3C//DTD SVG 1.1//EN" "http://www.w3.org/Graphics/SVG/1.1/DTD/svg11.dtd">
<!-- Creator: CorelDRAW X5 -->
<svg xmlns="http://www.w3.org/2000/svg" xml:space="preserve" width="105mm" height="105mm" style="shape-rendering:geometricPrecision; text-rendering:geometricPrecision; image-rendering:optimizeQuality; fill-rule:evenodd; clip-rule:evenodd"
viewBox="0 0 105 105"
 xmlns:xlink="http://www.w3.org/1999/xlink"
 version="1.1">
 <defs>
  <style type="text/css">
   <![CDATA[
    .fil0 {fill:white}
   ]]>
  </style>
 </defs>
 <g id="Слой_x0020_1">
  <metadata id="CorelCorpID_0Corel-Layer"/>
  <g id="casual-t-shirt-.svg">
   <g>
    <path id="_530805688" class="fil0" d="M52.265 33.6746c2.4423,0 4.5519,-1.5572 5.3098,-3.8481 -1.4459,0.398 -3.2887,0.6382 -5.3098,0.6382 -2.0209,0 -3.8638,-0.2402 -5.3094,-0.6382 0.7574,2.2907 2.8669,3.8481 5.3094,3.8481z"/>
    <path id="_530806432" class="fil0" d="M80.3869 36.4917c-0.116,-0.3255 -0.3574,-0.5932 -0.6718,-0.739l-10.7498 -4.9625c-2.2867,-0.7746 -4.6163,-1.3865 -6.9686,-1.8337 -0.0828,-0.0163 -0.1652,-0.0241 -0.2464,-0.0241 -0.5824,0 -1.1038,0.402 -1.2335,0.9916 -0.859,3.7815 -4.2064,6.6127 -8.252,6.6127 -4.0454,0 -7.3931,-2.831 -8.2518,-6.6127 -0.1313,-0.5896 -0.6518,-0.9916 -1.2337,-0.9916 -0.0813,0 -0.1637,0.0078 -0.2465,0.0241 -2.3521,0.4472 -4.6817,1.0591 -6.9719,1.8337l-10.7461 4.9623c-0.3163,0.1458 -0.5594,0.4135 -0.6699,0.739 -0.1142,0.3293 -0.0937,0.6848 0.0674,0.9954l4.6668 9.21c0.2184,0.4371 0.6628,0.6994 1.1329,0.6994 0.1214,0 0.2444,-0.0176 0.3658,-0.054l5.1832 -1.5363 0 30.9028c0,0.7017 0.5726,1.2741 1.2763,1.2741l30.8556 0c0.7017,0 1.2726,-0.5726 1.2726,-1.2741l0 -30.9024 5.1869 1.5363c0.1214,0.0365 0.2442,0.054 0.3654,0.054 0.4691,0 0.9118,-0.2624 1.1333,-0.6995l4.6685 -9.2099c0.1572,-0.3109 0.1797,-0.6663 0.0673,-0.9956z"/>
   </g>
   <g>
   </g>
   <g>
   </g>
   <g>
   </g>
   <g>
   </g>
   <g>
   </g>
   <g>
   </g>
   <g>
   </g>
   <g>
   </g>
   <g>
   </g>
   <g>
   </g>
   <g>
   </g>
   <g>
   </g>
   <g>
   </g>
   <g>
   </g>
   <g>
   </g>
  </g>
 </g>
</svg>
