<?xml version="1.0" encoding="UTF-8"?>
<!DOCTYPE svg PUBLIC "-//W3C//DTD SVG 1.1//EN" "http://www.w3.org/Graphics/SVG/1.1/DTD/svg11.dtd">
<!-- Creator: CorelDRAW X5 -->
<svg xmlns="http://www.w3.org/2000/svg" xml:space="preserve" width="105mm" height="105mm" style="shape-rendering:geometricPrecision; text-rendering:geometricPrecision; image-rendering:optimizeQuality; fill-rule:evenodd; clip-rule:evenodd"
viewBox="0 0 105 105"
 xmlns:xlink="http://www.w3.org/1999/xlink"
 version="1.1">
 <defs>
  <style type="text/css">
   <![CDATA[
    .str0 {stroke:white;stroke-width:0.5}
    .fil0 {fill:white}
   ]]>
  </style>
 </defs>
 <g id="Слой_x0020_1">
  <metadata id="CorelCorpID_0Corel-Layer"/>
  <g id="kid-teddy-bear-.svg">
   <g>
    <g id="Layer_5_41_">
     <g>
      <circle id="_388242952" class="fil0 str0" cx="51.0123" cy="43.1921" r="1.93435"/>
      <path id="_389716168" class="fil0 str0" d="M65.9448 68.5535c-0.9311,-0.4998 -0.7878,-1.4009 -0.7878,-1.9658l0 -7.8926c2.7238,-0.5563 8.7182,-0.6074 8.7182,-5.9913 0,-2.6604 -2.1705,-3.6347 -4.8175,-3.3655 -2.1107,0.2145 -3.1035,1.6232 -6.6792,0.2783 -0.4533,-0.1704 -1.7179,-1.2859 -0.9938,-2.1685 1.8509,-2.2565 2.8951,-5.1984 2.8951,-8.3664 0,-0.5179 -0.0044,-1.5554 0.46,-1.7492 2.3814,-0.994 3.9918,-3.4607 3.9918,-6.2492 0,-3.7758 -3.0066,-6.837 -6.715,-6.837 -2.0105,0 -3.8142,0.9003 -5.045,2.3259 -0.1077,0.125 -0.3002,0.3843 -0.772,0.1806 -1.6703,-0.7858 -3.0682,-1.0188 -5.0293,-1.0188 -2.1062,0 -3.6369,0.2841 -5.4005,1.1828 -0.5566,0.1703 -0.9347,-0.4031 -1.2099,-0.6814 -1.2136,-1.229 -2.8852,-1.9891 -4.7322,-1.9891 -3.7085,0 -6.7153,3.061 -6.7153,6.837 0,2.8988 1.7721,5.376 4.2734,6.3704 0.2418,0.0961 0.6154,0.3862 0.6751,1.6281 0.151,3.1408 1.0686,6.0344 2.8555,8.3154 0.6628,0.8457 0.0242,1.9374 -0.9731,2.2456 -3.6379,1.1246 -4.5566,-0.0876 -6.6597,-0.3046 -2.6467,-0.2731 -4.8175,0.705 -4.8175,3.3654 0,5.2391 5.9927,5.4257 8.7178,5.9741l0 7.9099c0,0.5804 0.0812,1.3933 -1.129,2.141 -3.3798,1.3928 -8.2308,1.5004 -8.2308,6.2302 0,2.8781 2.387,5.7662 5.2112,5.2112 3.5379,-0.6951 5.395,-1.8695 10.7632,-4.299 1.1562,-0.5268 1.9719,-0.2626 2.4796,-0.1915 1.5228,0.2139 3.1714,0.2966 4.8921,0.2966 1.9226,0 3.7548,-0.1031 5.4218,-0.3772 0.4208,-0.0691 1.4048,-0.1088 2.3082,0.2584 5.2388,2.4386 6.92,3.611 10.4056,4.3126 2.8215,0.5679 5.2112,-2.3331 5.2112,-5.2111 0.0004,-4.7295 -5.1985,-4.9946 -8.5722,-6.4053zm-8.4294 -23.4268c0,2.8177 -2.9113,5.1023 -6.5032,5.1023 -3.5913,0 -6.5031,-2.2846 -6.5031,-5.1023 0,-2.8181 2.9116,-5.1024 6.5031,-5.1024 3.5917,0 6.5032,2.2843 6.5032,5.1024zm-15.8612 -8.4152c0,-1.2822 1.039,-2.3215 2.3213,-2.3215 1.2821,0 2.3217,1.0394 2.3217,2.3215 0,1.2821 -1.0397,2.3215 -2.3217,2.3215 -1.2823,-0.0002 -2.3213,-1.0395 -2.3213,-2.3215zm17.3724 28.7189c0,4.3386 -3.5174,6.287 -7.8557,6.287 -4.3388,0 -7.8559,-1.9484 -7.8559,-6.287l-0.0001 -3.6941c0,-4.3387 3.5173,-7.8558 7.8559,-7.8558 4.3385,0 7.8557,3.5173 7.8557,7.8558l0.0001 3.6941zm-1.7994 -26.3976c-1.2822,0 -2.3215,-1.0393 -2.3215,-2.3215 0,-1.2821 1.0393,-2.3214 2.3215,-2.3214 1.2821,0 2.3214,1.0393 2.3214,2.3214 0,1.2822 -1.0392,2.3215 -2.3214,2.3215z"/>
     </g>
    </g>
   </g>
   <g>
   </g>
   <g>
   </g>
   <g>
   </g>
   <g>
   </g>
   <g>
   </g>
   <g>
   </g>
   <g>
   </g>
   <g>
   </g>
   <g>
   </g>
   <g>
   </g>
   <g>
   </g>
   <g>
   </g>
   <g>
   </g>
   <g>
   </g>
   <g>
   </g>
  </g>
 </g>
</svg>
