<?xml version="1.0" encoding="UTF-8"?>
<!DOCTYPE svg PUBLIC "-//W3C//DTD SVG 1.1//EN" "http://www.w3.org/Graphics/SVG/1.1/DTD/svg11.dtd">
<!-- Creator: CorelDRAW X5 -->
<svg xmlns="http://www.w3.org/2000/svg" xml:space="preserve" width="105mm" height="105mm" style="shape-rendering:geometricPrecision; text-rendering:geometricPrecision; image-rendering:optimizeQuality; fill-rule:evenodd; clip-rule:evenodd"
viewBox="0 0 105 105"
 xmlns:xlink="http://www.w3.org/1999/xlink"
 version="1.1">
 <defs>
  <style type="text/css">
   <![CDATA[
    .fil0 {fill:white}
   ]]>
  </style>
 </defs>
 <g id="Слой_x0020_1">
  <metadata id="CorelCorpID_0Corel-Layer"/>
  <g id="baby-stroller.svg">
   <g>
    <g>
     <g>
      <path id="_388468736" class="fil0" d="M55.2822 25.57l0 22.3559 22.3558 0c0,-12.3517 -10.0042,-22.3559 -22.3558,-22.3559z"/>
      <path id="_388468328" class="fil0" d="M36.9505 50.7203l-2.6548 -5.589 -9.7527 0 0 5.589 6.2177 0c0,0 5.2816,11.3736 5.9244,12.3377 -3.0741,1.6626 -5.156,4.8903 -5.156,8.6209 0,5.4073 4.3734,9.7807 9.7808,9.7807 4.9322,0 8.9842,-3.6468 9.6688,-8.3834l5.8125 0c0.6846,4.7366 4.7366,8.3834 9.6688,8.3834 5.4073,0 9.7807,-4.3734 9.7807,-9.7807 0,-2.9063 -1.2715,-5.5052 -3.2835,-7.2936 2.9203,-3.7866 4.6808,-8.5092 4.6808,-13.665l-40.6875 0zm4.3594 25.1503c-2.3195,0 -4.1917,-1.8723 -4.1917,-4.1917 0,-2.3195 1.8722,-4.1917 4.1917,-4.1917 2.3194,0 4.1917,1.8722 4.1917,4.1917 0,2.3194 -1.8724,4.1917 -4.1917,4.1917zm25.1502 0c-2.3194,0 -4.1917,-1.8723 -4.1917,-4.1917 0,-2.3195 1.8723,-4.1917 4.1917,-4.1917 2.3195,0 4.1917,1.8722 4.1917,4.1917 0,2.3194 -1.8723,4.1917 -4.1917,4.1917z"/>
     </g>
    </g>
   </g>
   <g>
   </g>
   <g>
   </g>
   <g>
   </g>
   <g>
   </g>
   <g>
   </g>
   <g>
   </g>
   <g>
   </g>
   <g>
   </g>
   <g>
   </g>
   <g>
   </g>
   <g>
   </g>
   <g>
   </g>
   <g>
   </g>
   <g>
   </g>
   <g>
   </g>
  </g>
 </g>
</svg>
