<?xml version="1.0" encoding="UTF-8"?>
<!DOCTYPE svg PUBLIC "-//W3C//DTD SVG 1.1//EN" "http://www.w3.org/Graphics/SVG/1.1/DTD/svg11.dtd">
<!-- Creator: CorelDRAW X5 -->
<svg xmlns="http://www.w3.org/2000/svg" xml:space="preserve" width="105mm" height="105mm" style="shape-rendering:geometricPrecision; text-rendering:geometricPrecision; image-rendering:optimizeQuality; fill-rule:evenodd; clip-rule:evenodd"
viewBox="0 0 105 105"
 xmlns:xlink="http://www.w3.org/1999/xlink"
 version="1.1">
 <defs>
  <style type="text/css">
   <![CDATA[
    .fil0 {fill:white}
   ]]>
  </style>
 </defs>
 <g id="Слой_x0020_1">
  <metadata id="CorelCorpID_0Corel-Layer"/>
  <g id="happy-and-sad-theater-masks.svg">
   <g>
    <path id="_392386512" class="fil0" d="M44.6175 44.3851c-1.8292,0 -3.3816,1.1707 -3.9593,2.8032 -0.1552,-0.4399 -0.244,-0.9092 -0.244,-1.4015 0,-2.3209 1.8816,-4.203 4.203,-4.203 1.5935,0 2.98,0.8873 3.6929,2.1945 0.1926,-3.4395 0.705,-6.4447 1.2275,-8.7519l-28.4318 -0.0003c-0.2411,0 -0.4719,0.0963 -0.6428,0.2664 -0.1709,0.1706 -0.2664,0.4022 -0.2664,0.6428 0,0.2132 0.1933,21.5047 16.8814,33.7533 0.1598,0.1175 0.349,0.1763 0.5383,0.1763 0.1884,0 0.3776,-0.0588 0.5374,-0.1763 5.1018,-3.744 8.6631,-8.4362 11.1485,-13.1196 -0.7902,-3.5339 -1.0811,-6.9617 -1.0716,-10.1151 -0.7308,-1.2363 -2.0723,-2.0688 -3.6131,-2.0688zm-17.5568 2.8029c-0.1556,-0.4399 -0.2444,-0.9092 -0.2444,-1.4014 0,-2.3209 1.8823,-4.203 4.2038,-4.203 2.3209,0 4.203,1.8823 4.203,4.203 0,0.4925 -0.0888,0.9615 -0.2445,1.4014 -0.5777,-1.6325 -2.1296,-2.8031 -3.9585,-2.8031 -1.8292,0.0002 -3.3816,1.1709 -3.9594,2.8031zm10.1082 14.1769c-3.3958,0 -6.1483,-1.8823 -6.1483,-4.203 0,-0.4925 0.1298,-0.9615 0.3572,-1.4014 0.8457,1.6317 3.1158,2.8024 5.7911,2.8024 2.6753,0 4.947,-1.1707 5.7918,-2.8024 0.2275,0.4399 0.3573,0.9092 0.3573,1.4014 -0.0002,2.3207 -2.7533,4.203 -6.1491,4.203zm47.4063 -18.1662c-0.0956,-0.2253 -0.2773,-0.4016 -0.5042,-0.4909l-30.7427 -12.0522c-0.2253,-0.0881 -0.4755,-0.0826 -0.6967,0.0137 -0.2207,0.097 -0.3947,0.2767 -0.483,0.5013 -0.0779,0.1987 -7.6692,20.0921 3.3979,37.5856 0.1051,0.1681 0.2602,0.2917 0.4365,0.3593 0.1763,0.0705 0.3723,0.0839 0.5656,0.0328 19.5077,-5.179 27.9468,-25.0458 28.0294,-25.2461 0.0929,-0.2254 0.0914,-0.4786 -0.0028,-0.7035zm-28.8359 -3.0488c0.1797,-0.4582 0.4345,-0.8632 0.7391,-1.2158 -0.0573,1.73 0.9603,3.387 2.6629,4.0548 1.702,0.668 3.5747,0.1435 4.7085,-1.1645 -0.015,0.4665 -0.1046,0.9358 -0.2842,1.3947 -0.8475,2.1609 -3.2866,3.2257 -5.4488,2.3783 -2.1596,-0.847 -3.2249,-3.2859 -2.3775,-5.4475zm-1.2408 15.7436c0.8776,-2.1488 4.139,-2.8481 7.282,-1.5633 3.1444,1.2847 4.9798,4.0685 4.1021,6.218 -0.1858,0.4548 -0.4842,0.84 -0.8611,1.1619 -0.1647,-1.8305 -1.8235,-3.7722 -4.3009,-4.7864 -2.4765,-1.0109 -5.022,-0.4453 -6.4206,0.7452 -0.0455,-0.4935 0.0113,-1.3191 0.1985,-1.7754zm21.7272 -7.7117c-0.847,2.1609 -3.2866,3.2265 -5.4483,2.3788 -2.1608,-0.8475 -3.2264,-3.2866 -2.3782,-5.4483 0.1797,-0.4582 0.4337,-0.8632 0.7391,-1.215 -0.0574,1.7292 0.9602,3.3862 2.6621,4.0543 1.7035,0.668 3.5755,0.144 4.71,-1.1645 -0.0162,0.4665 -0.1045,0.9358 -0.2847,1.3947z"/>
   </g>
   <g>
   </g>
   <g>
   </g>
   <g>
   </g>
   <g>
   </g>
   <g>
   </g>
   <g>
   </g>
   <g>
   </g>
   <g>
   </g>
   <g>
   </g>
   <g>
   </g>
   <g>
   </g>
   <g>
   </g>
   <g>
   </g>
   <g>
   </g>
   <g>
   </g>
  </g>
 </g>
</svg>
