<?xml version="1.0" encoding="UTF-8"?>
<!DOCTYPE svg PUBLIC "-//W3C//DTD SVG 1.1//EN" "http://www.w3.org/Graphics/SVG/1.1/DTD/svg11.dtd">
<!-- Creator: CorelDRAW X5 -->
<svg xmlns="http://www.w3.org/2000/svg" xml:space="preserve" width="105mm" height="105mm" style="shape-rendering:geometricPrecision; text-rendering:geometricPrecision; image-rendering:optimizeQuality; fill-rule:evenodd; clip-rule:evenodd"
viewBox="0 0 105 105"
 xmlns:xlink="http://www.w3.org/1999/xlink"
 version="1.1">
 <defs>
  <style type="text/css">
   <![CDATA[
    .fil0 {fill:white}
   ]]>
  </style>
 </defs>
 <g id="Слой_x0020_1">
  <metadata id="CorelCorpID_0Corel-Layer"/>
  <g id="home_x0028_1_x0029_.svg">
   <g>
    <g>
     <path id="_391386168" class="fil0" d="M51.5607 37.7219l-21.9564 18.1007c0,0.0255 -0.0064,0.0631 -0.0192,0.1143 -0.0126,0.0508 -0.0193,0.0878 -0.0193,0.114l0 18.3288c0,0.6618 0.242,1.2353 0.7257,1.7183 0.4836,0.4832 1.0564,0.7264 1.7183,0.7264l14.6627 -0.0001 0 -14.6634 9.7766 0 0 14.664 14.6625 0c0.6618,0 1.2353,-0.2426 1.7183,-0.7269 0.4837,-0.4825 0.7265,-1.0564 0.7265,-1.7183l0 -18.3288c0,-0.1017 -0.0139,-0.1785 -0.0385,-0.2283l-21.9572 -18.1007z"/>
     <path id="_391386336" class="fil0" d="M81.9177 51.6983l-8.3621 -6.9497 0 -15.5798c0,-0.3562 -0.1145,-0.6491 -0.3443,-0.8784 -0.2279,-0.229 -0.5208,-0.3434 -0.8778,-0.3434l-7.3315 0c-0.3565,0 -0.6493,0.1144 -0.8787,0.3434 -0.2288,0.2293 -0.3432,0.5223 -0.3432,0.8784l0 7.446 -9.3171 -7.7901c-0.8137,-0.6619 -1.7812,-0.9928 -2.9015,-0.9928 -1.1201,0 -2.0875,0.3309 -2.902,0.9928l-27.4563 22.8736c-0.2546,0.2034 -0.3941,0.477 -0.42,0.8207 -0.0258,0.3435 0.0631,0.6435 0.2671,0.8978l2.3675 2.8259c0.2039,0.2289 0.4709,0.369 0.8019,0.4202 0.3056,0.0257 0.6112,-0.0637 0.9168,-0.2672l26.4242 -22.0338 26.4244 22.0336c0.2042,0.1776 0.471,0.2663 0.802,0.2663l0.1148 0c0.3305,-0.0503 0.5969,-0.1913 0.8019,-0.4197l2.3677 -2.8254c0.2036,-0.2549 0.2928,-0.5544 0.2663,-0.8982 -0.0261,-0.3428 -0.1661,-0.6165 -0.4201,-0.8202z"/>
    </g>
   </g>
   <g>
   </g>
   <g>
   </g>
   <g>
   </g>
   <g>
   </g>
   <g>
   </g>
   <g>
   </g>
   <g>
   </g>
   <g>
   </g>
   <g>
   </g>
   <g>
   </g>
   <g>
   </g>
   <g>
   </g>
   <g>
   </g>
   <g>
   </g>
   <g>
   </g>
  </g>
 </g>
</svg>
