<?xml version="1.0" encoding="UTF-8"?>
<!DOCTYPE svg PUBLIC "-//W3C//DTD SVG 1.1//EN" "http://www.w3.org/Graphics/SVG/1.1/DTD/svg11.dtd">
<!-- Creator: CorelDRAW X5 -->
<svg xmlns="http://www.w3.org/2000/svg" xml:space="preserve" width="105mm" height="105mm" style="shape-rendering:geometricPrecision; text-rendering:geometricPrecision; image-rendering:optimizeQuality; fill-rule:evenodd; clip-rule:evenodd"
viewBox="0 0 105 105"
 xmlns:xlink="http://www.w3.org/1999/xlink"
 version="1.1">
 <defs>
  <style type="text/css">
   <![CDATA[
    .str0 {stroke:white;stroke-width:0.5}
    .fil0 {fill:white}
   ]]>
  </style>
 </defs>
 <g id="Слой_x0020_1">
  <metadata id="CorelCorpID_0Corel-Layer"/>
  <g id="icon.svg">
   <g>
    <g>
     <path id="_392377992" class="fil0 str0" d="M54.6766 53.453c1.7055,-0.8128 2.2628,-3.2033 1.2484,-5.3269 -1.0158,-2.1311 -3.2228,-3.2033 -4.929,-2.3906 -1.7055,0.8128 -2.2628,3.2033 -1.247,5.3344 1.0157,2.127 3.2234,3.1992 4.9276,2.3831z"/>
     <path id="_392378208" class="fil0 str0" d="M59.7884 40.7373c1.6396,10.2647 -5.6651,17.9593 -5.6651,17.9593 0,0 -6.0227,-10.19 -16.1502,-13.2656 19.7004,14.4057 8.4879,32.365 8.4879,32.365l5.702 0c0.002,0 13.2562,-22.8755 7.6254,-37.0587z"/>
     <path id="_392378400" class="fil0 str0" d="M48.67 41.9091c-0.1103,-0.1634 -0.2225,-0.3382 -0.3341,-0.5298 -0.521,-0.9001 -0.7597,-1.7357 -0.7597,-1.7357 0,0 0.601,0.6299 1.1227,1.524 0.1082,0.1902 0.203,0.3771 0.2897,0.5552 0.0821,-0.4289 0.1782,-1.3088 -0.2386,-2.0349 -0.5748,-0.9942 -1.8978,-1.3035 -1.8978,-1.3035 0,0 -0.3946,1.3022 0.1795,2.2978 0.4161,0.7254 1.2269,1.083 1.6383,1.2269z"/>
     <path id="_392377272" class="fil0 str0" d="M61.748 49.4598c0.3308,0.2844 1.046,0.8074 1.8803,0.8074 1.1489,0 2.0773,-0.9943 2.0773,-0.9943 0,0 -0.9264,-0.9922 -2.0773,-0.9922 -0.8343,0 -1.5495,0.523 -1.8803,0.8074 0.1977,-0.0142 0.404,-0.0249 0.6259,-0.0249 1.0386,0 1.887,0.2064 1.887,0.2064 0,0 -0.8484,0.2097 -1.887,0.2084 -0.2239,0.0087 -0.4282,-0.0041 -0.6259,-0.0182z"/>
     <path id="_392377584" class="fil0 str0" d="M57.5753 41.1709c0.5177,-0.9001 1.1227,-1.528 1.1227,-1.528 0,0 -0.24,0.8396 -0.761,1.7398 -0.1102,0.1882 -0.2225,0.3664 -0.3361,0.5297 0.4161,-0.1438 1.2255,-0.5035 1.6396,-1.2235 0.5761,-0.9976 0.1849,-2.3018 0.1849,-2.3018 0,0 -1.327,0.3146 -1.8998,1.3055 -0.4161,0.722 -0.324,1.6007 -0.24,2.0349 0.082,-0.1794 0.1781,-0.3663 0.2897,-0.5566z"/>
     <path id="_392377056" class="fil0 str0" d="M52.6719 35.7532c0,-2.3139 0.4645,-4.1868 0.4645,-4.1868 0,0 0.4659,1.8763 0.4659,4.1868 0,0.4894 -0.0228,0.9519 -0.0585,1.3889 0.6367,-0.7348 1.7983,-2.3267 1.7983,-4.1834 0,-2.5539 -2.2057,-4.6231 -2.2057,-4.6231 0,0 -2.2056,2.0685 -2.2056,4.6231 0,1.8567 1.1616,3.4473 1.7962,4.1834 -0.0322,-0.437 -0.0551,-0.8981 -0.0551,-1.3889z"/>
     <path id="_392377008" class="fil0 str0" d="M37.9052 43.0277c1.6094,0.9284 3.5663,0.7166 4.5216,0.5338 -0.3946,-0.1849 -0.8094,-0.4021 -1.2309,-0.6441 -2.0027,-1.1542 -3.3936,-2.4934 -3.3936,-2.4934 0,0 1.8555,0.5338 3.8581,1.6901 0.4235,0.2454 0.8128,0.4948 1.1758,0.7455 -0.3167,-0.9216 -1.1119,-2.7213 -2.7233,-3.6496 -2.2097,-1.2793 -5.1051,-0.4047 -5.1051,-0.4047 0,0 0.6863,2.9471 2.8974,4.2224z"/>
     <path id="_392377080" class="fil0 str0" d="M68.365 55.5195c-1.608,-0.9264 -3.5643,-0.7186 -4.5196,-0.5351 0.3967,0.1869 0.8094,0.404 1.233,0.6454 2.0013,1.1562 3.3935,2.4933 3.3935,2.4933 0,0 -1.8554,-0.5317 -3.8594,-1.688 -0.4235,-0.2474 -0.8128,-0.4961 -1.1738,-0.7469 0.3167,0.9217 1.1119,2.7193 2.7193,3.6484 2.209,1.2786 5.1064,0.404 5.1064,0.404 0,0 -0.6904,-2.9458 -2.8994,-4.2211z"/>
     <path id="_392377176" class="fil0 str0" d="M42.8321 55.6936c-0.363,0.2474 -0.7509,0.4961 -1.1737,0.7435 -2.0027,1.1529 -3.8594,1.6914 -3.8594,1.6914 0,0 1.3909,-1.3411 3.3935,-2.4974 0.4249,-0.2474 0.8376,-0.4551 1.2329,-0.6454 -0.9532,-0.1848 -2.9135,-0.3966 -4.5216,0.5352 -2.211,1.2752 -2.9007,4.221 -2.9007,4.221 0,0 2.8954,0.8753 5.1064,-0.4 1.6107,-0.9317 2.406,-2.73 2.7226,-3.6483z"/>
     <path id="_392377440" class="fil0 str0" d="M63.4401 42.8522c0.361,-0.2474 0.7509,-0.4961 1.1778,-0.7415 2.0013,-1.1562 3.856,-1.69 3.856,-1.69 0,0 -1.3889,1.3391 -3.3935,2.4934 -0.4235,0.2453 -0.8376,0.4591 -1.2289,0.644 0.9519,0.1849 2.9115,0.3986 4.5162,-0.5338 2.2124,-1.2773 2.9008,-4.2224 2.9008,-4.2224 0,0 -2.8941,-0.8733 -5.1031,0.404 -1.6141,0.9284 -2.4107,2.728 -2.7253,3.6463z"/>
     <path id="_392376984" class="fil0 str0" d="M44.5289 35.4635c-0.3307,-0.4854 -0.6669,-1.0084 -0.9963,-1.5778 -1.5509,-2.6823 -2.2675,-5.1723 -2.2675,-5.1723 0,0 1.7963,1.8641 3.3458,4.5532 0.3288,0.5653 0.6118,1.1186 0.8645,1.6503 0.2488,-1.2786 0.5318,-3.9024 -0.7132,-6.0583 -1.7116,-2.9647 -5.6597,-3.8897 -5.6597,-3.8897 0,0 -1.1724,3.8816 0.5384,6.8449 1.2451,2.1573 3.6611,3.2228 4.888,3.6497z"/>
     <path id="_392377608" class="fil0 str0" d="M61.7447 63.0864c0.3307,0.4854 0.6702,1.007 0.9976,1.5744 1.5529,2.6931 2.2675,5.1757 2.2675,5.1757 0,0 -1.7963,-1.8655 -3.3492,-4.5518 -0.3274,-0.5694 -0.6117,-1.1227 -0.8645,-1.6504 -0.2433,1.2786 -0.5284,3.897 0.7153,6.0543 1.7129,2.9633 5.6597,3.8917 5.6597,3.8917 0,0 1.1778,-3.885 -0.5351,-6.8476 -1.2484,-2.1559 -3.6625,-3.2214 -4.8913,-3.6463z"/>
     <path id="_392376576" class="fil0 str0" d="M35.0078 49.8988c-3.1005,0 -5.6133,-0.6259 -5.6133,-0.6259 0,0 2.5135,-0.6258 5.6133,-0.6258 0.6581,0 1.2786,0.0356 1.8641,0.0779 -0.9835,-0.8537 -3.1145,-2.412 -5.6079,-2.412 -3.4204,0.002 -6.1955,2.9599 -6.1955,2.9599 0,0 2.7764,2.96 6.1948,2.9579 2.4921,0 4.6231,-1.5562 5.6066,-2.408 -0.5848,0.0444 -1.2074,0.076 -1.8621,0.076z"/>
     <path id="_392376696" class="fil0 str0" d="M75.0082 46.3204c-2.49,0 -4.621,1.5509 -5.6066,2.408 0.5869,-0.0444 1.2094,-0.078 1.8622,-0.0766 3.1018,0 5.6133,0.6245 5.6133,0.6245 0,0 -2.5115,0.6259 -5.61,0.6259 -0.6561,0 -1.2786,-0.0337 -1.8655,-0.0767 0.9835,0.8518 3.1166,2.408 5.6066,2.408 3.4225,0 6.1935,-2.9545 6.1935,-2.9545 0,0 -2.7751,-2.962 -6.1935,-2.9586z"/>
     <path id="_392376720" class="fil0 str0" d="M44.6123 65.286c-1.5509,2.6857 -3.3472,4.5518 -3.3472,4.5518 0,0 0.7153,-2.49 2.2662,-5.1756 0.3307,-0.5654 0.6669,-1.0871 0.9996,-1.5778 -1.2309,0.4269 -3.6463,1.4944 -4.8913,3.6517 -1.7129,2.9633 -0.5391,6.8475 -0.5391,6.8475 0,0 3.9501,-0.925 5.6617,-3.8883 1.247,-2.1572 0.964,-4.7831 0.7166,-6.0583 -0.2581,0.527 -0.5405,1.0749 -0.8665,1.649z"/>
     <path id="_392376480" class="fil0 str0" d="M61.6613 33.2612c1.5495,-2.6857 3.3458,-4.5498 3.3458,-4.5498 0,0 -0.7153,2.4886 -2.2675,5.1723 -0.3274,0.564 -0.6635,1.0904 -0.9943,1.5757 1.2289,-0.4248 3.6443,-1.4924 4.888,-3.6483 1.7129,-2.9633 0.5391,-6.8496 0.5391,-6.8496 0,0 -3.9468,0.9264 -5.6597,3.8897 -1.2504,2.1573 -0.966,4.7811 -0.7186,6.0583 0.2554,-0.5243 0.5364,-1.0769 0.8672,-1.6483z"/>
    </g>
   </g>
   <g>
   </g>
   <g>
   </g>
   <g>
   </g>
   <g>
   </g>
   <g>
   </g>
   <g>
   </g>
   <g>
   </g>
   <g>
   </g>
   <g>
   </g>
   <g>
   </g>
   <g>
   </g>
   <g>
   </g>
   <g>
   </g>
   <g>
   </g>
   <g>
   </g>
  </g>
 </g>
</svg>
