<?xml version="1.0" encoding="UTF-8"?>
<!DOCTYPE svg PUBLIC "-//W3C//DTD SVG 1.1//EN" "http://www.w3.org/Graphics/SVG/1.1/DTD/svg11.dtd">
<!-- Creator: CorelDRAW X5 -->
<svg xmlns="http://www.w3.org/2000/svg" xml:space="preserve" width="105mm" height="105mm" style="shape-rendering:geometricPrecision; text-rendering:geometricPrecision; image-rendering:optimizeQuality; fill-rule:evenodd; clip-rule:evenodd"
viewBox="0 0 105 105"
 xmlns:xlink="http://www.w3.org/1999/xlink"
 version="1.1">
 <defs>
  <style type="text/css">
   <![CDATA[
    .fil0 {fill:white}
   ]]>
  </style>
 </defs>
 <g id="Слой_x0020_1">
  <metadata id="CorelCorpID_0Corel-Layer"/>
  <g id="shopping-cart.svg">
   <g>
    <g id="shopping-cart">
     <path id="_387524632" class="fil0" d="M41.0337 70.0517c-2.8302,0 -5.1458,2.3156 -5.1458,5.1458 0,2.8302 2.3156,5.1458 5.1458,5.1458 2.8302,0 5.1458,-2.3156 5.1458,-5.1458 0,-2.8302 -2.3156,-5.1458 -5.1458,-5.1458zm-15.4373 -41.1661l0 5.1457 5.1458 0 9.2624 19.554 -3.6021 6.1749c-0.2573,0.7719 -0.5146,1.801 -0.5146,2.5729 0,2.8302 2.3156,5.1458 5.1458,5.1458l30.8746 -0.0001 0 -5.1457 -29.8454 0c-0.2573,0 -0.5146,-0.2573 -0.5146,-0.5146l0 -0.2574 2.3156 -4.3739 19.0393 0c2.0583,0 3.602,-1.0292 4.3739,-2.5729l9.2624 -16.7236c0.5146,-0.5146 0.5146,-0.7719 0.5146,-1.2865 0,-1.5437 -1.0292,-2.5729 -2.5729,-2.5729l-38.0787 0 -2.3156 -5.1457 -8.4905 0zm41.1662 41.1661c-2.8302,0 -5.1458,2.3156 -5.1458,5.1458 0,2.8302 2.3156,5.1458 5.1458,5.1458 2.8302,0 5.1458,-2.3156 5.1458,-5.1458 0,-2.8302 -2.3157,-5.1458 -5.1458,-5.1458z"/>
    </g>
   </g>
   <g>
   </g>
   <g>
   </g>
   <g>
   </g>
   <g>
   </g>
   <g>
   </g>
   <g>
   </g>
   <g>
   </g>
   <g>
   </g>
   <g>
   </g>
   <g>
   </g>
   <g>
   </g>
   <g>
   </g>
   <g>
   </g>
   <g>
   </g>
   <g>
   </g>
  </g>
 </g>
</svg>
