<?xml version="1.0" encoding="UTF-8"?>
<!DOCTYPE svg PUBLIC "-//W3C//DTD SVG 1.1//EN" "http://www.w3.org/Graphics/SVG/1.1/DTD/svg11.dtd">
<!-- Creator: CorelDRAW X5 -->
<svg xmlns="http://www.w3.org/2000/svg" xml:space="preserve" width="105mm" height="105mm" style="shape-rendering:geometricPrecision; text-rendering:geometricPrecision; image-rendering:optimizeQuality; fill-rule:evenodd; clip-rule:evenodd"
viewBox="0 0 105 105"
 xmlns:xlink="http://www.w3.org/1999/xlink"
 version="1.1">
 <defs>
  <style type="text/css">
   <![CDATA[
    .fil0 {fill:white}
   ]]>
  </style>
 </defs>
 <g id="Слой_x0020_1">
  <metadata id="CorelCorpID_0Corel-Layer"/>
  <g id="air-transport.svg">
   <g>
    <path id="_390202848" class="fil0" d="M81.4407 39.9642c0,10.907 -52.5803,22.946 -56.5617,22.946 -2.2322,0 -4.7648,-0.5145 -4.7648,-2.5724 0,-0.6875 0.7936,-1.6813 2.1861,-2.8794l-0.0015 0.0009 -3.6909 -6.5581c-0.4998,-0.8879 -0.1036,-2.0127 0.8422,-2.3914l0.6343 -0.2539c1.1496,-0.4603 2.4435,-0.3917 3.5379,0.1876l6.7005 3.5473c2.6089,-1.5474 5.5683,-3.1676 8.6876,-4.7627l-13.0577 -8.4715c-1.033,-0.6702 -1.022,-2.1861 0.0207,-2.8411l1.0681 -0.6711c1.7778,-1.1169 3.939,-1.4468 5.969,-0.9114l21.7224 5.7298c6.7729,-2.6883 12.8965,-4.5232 16.5211,-4.5232 0.968,0 1.9374,0.0257 2.873,0.0926l-6.56 2.9613 -0.157 2.2066 10.1261 -4.6549c2.4273,0.5789 3.9046,1.6593 3.9046,3.819zm-26.4262 18.8278l8.1026 9.2045c0.4937,0.561 1.2979,0.7298 1.9755,0.4149l1.0852 -0.5044c1.9789,-0.9198 3.1443,-3.0054 2.8909,-5.1727l-1.0143 -8.6731c-0.0629,-0.5366 -0.6075,-0.8763 -1.1171,-0.6968l-11.5703 4.0757c-0.5632,0.1986 -0.7472,0.9037 -0.3525,1.3519z"/>
   </g>
   <g>
   </g>
   <g>
   </g>
   <g>
   </g>
   <g>
   </g>
   <g>
   </g>
   <g>
   </g>
   <g>
   </g>
   <g>
   </g>
   <g>
   </g>
   <g>
   </g>
   <g>
   </g>
   <g>
   </g>
   <g>
   </g>
   <g>
   </g>
   <g>
   </g>
  </g>
 </g>
</svg>
