<?xml version="1.0" encoding="UTF-8"?>
<!DOCTYPE svg PUBLIC "-//W3C//DTD SVG 1.1//EN" "http://www.w3.org/Graphics/SVG/1.1/DTD/svg11.dtd">
<!-- Creator: CorelDRAW X5 -->
<svg xmlns="http://www.w3.org/2000/svg" xml:space="preserve" width="105mm" height="105mm" style="shape-rendering:geometricPrecision; text-rendering:geometricPrecision; image-rendering:optimizeQuality; fill-rule:evenodd; clip-rule:evenodd"
viewBox="0 0 105 105"
 xmlns:xlink="http://www.w3.org/1999/xlink"
 version="1.1">
 <defs>
  <style type="text/css">
   <![CDATA[
    .fil0 {fill:white}
   ]]>
  </style>
 </defs>
 <g id="Слой_x0020_1">
  <metadata id="CorelCorpID_0Corel-Layer"/>
  <g id="sports-car.svg">
   <g>
    <g>
     <path id="_394367520" class="fil0" d="M79.9739 43.5381c-0.2777,-0.3388 -0.6924,-0.5368 -1.1279,-0.5368l-5.5303 0c-1.365,-3.5999 -3.143,-7.1268 -5.164,-8.4582 -6.9915,-4.5992 -25.5363,-4.5992 -32.5283,0 -2.0227,1.3331 -3.7936,4.8643 -5.1657,8.4582l-5.5308 0c-0.4394,0 -0.8524,0.198 -1.1279,0.5368 -0.2767,0.3376 -0.3872,0.7842 -0.297,1.2137l0.8194 3.9695c0.1397,0.6765 0.7364,1.1599 1.4244,1.1599l1.6388 0c-1.5816,1.8247 -2.3483,4.1224 -2.3587,6.4211 -0.0105,2.8405 1.068,5.4071 3.0396,7.2231 0.022,0.0187 0.0434,0.0319 0.0638,0.0511l0 5.5539c0,1.2033 0.9778,2.1828 2.1827,2.1828l5.1019 -0.0006c1.2049,0 2.1827,-0.9794 2.1827,-2.1827l0 -2.2323 28.5786 0.0006 0 2.2322c0,1.2033 0.9778,2.1828 2.1827,2.1828l5.1013 -0.0006c1.2017,0 2.1828,-0.9794 2.1828,-2.1827l0 -5.4451c2.0925,-1.9165 3.0918,-4.553 3.105,-7.185 0.0088,-2.3774 -0.7931,-4.7598 -2.4676,-6.6219l1.7477 0c0.6913,0 1.288,-0.4829 1.4244,-1.161l0.8205 -3.9679c0.0847,-0.4267 -0.0215,-0.87 -0.2981,-1.2109zm-41.9538 -5.3499c5.5731,-3.6682 22.159,-3.6682 27.7294,0 1.0829,0.71 2.4753,3.5807 3.7512,7.0965l-35.2291 -0.0006c1.2731,-3.5136 2.6656,-6.3832 3.7485,-7.0959zm-6.5279 18.6608c0,-2.3719 1.9237,-4.2923 4.294,-4.2923 2.373,0 4.294,1.9209 4.294,4.2923 0,2.3714 -1.921,4.294 -4.294,4.294 -2.3703,0 -4.294,-1.9221 -4.294,-4.294zm36.55 4.294c-2.3702,0 -4.2939,-1.9221 -4.2939,-4.294 0,-2.3719 1.9237,-4.2923 4.2939,-4.2923 2.3731,0 4.294,1.9209 4.294,4.2923 0,2.3714 -1.9237,4.294 -4.294,4.294z"/>
    </g>
   </g>
   <g>
   </g>
   <g>
   </g>
   <g>
   </g>
   <g>
   </g>
   <g>
   </g>
   <g>
   </g>
   <g>
   </g>
   <g>
   </g>
   <g>
   </g>
   <g>
   </g>
   <g>
   </g>
   <g>
   </g>
   <g>
   </g>
   <g>
   </g>
   <g>
   </g>
  </g>
 </g>
</svg>
