<?xml version="1.0" encoding="UTF-8"?>
<!DOCTYPE svg PUBLIC "-//W3C//DTD SVG 1.1//EN" "http://www.w3.org/Graphics/SVG/1.1/DTD/svg11.dtd">
<!-- Creator: CorelDRAW X5 -->
<svg xmlns="http://www.w3.org/2000/svg" xml:space="preserve" width="105mm" height="105mm" style="shape-rendering:geometricPrecision; text-rendering:geometricPrecision; image-rendering:optimizeQuality; fill-rule:evenodd; clip-rule:evenodd"
viewBox="0 0 105 105"
 xmlns:xlink="http://www.w3.org/1999/xlink"
 version="1.1">
 <defs>
  <style type="text/css">
   <![CDATA[
    .str0 {stroke:#D94141;stroke-width:0.5}
    .fil0 {fill:#FF6666}
    .fil1 {fill:white}
   ]]>
  </style>
 </defs>
 <g id="Слой_x0020_1">
  <metadata id="CorelCorpID_0Corel-Layer"/>
  <circle class="fil0 str0" cx="52.4217" cy="50.229" r="41.3245"/>
  <g id="cocktail.svg">
   <g>
    <g>
     <path id="_399498088" class="fil1" d="M69.5928 25.7241c-5.9264,0 -10.8461,4.3904 -11.6792,10.0894l-14.3566 0 -11.6573 -12.3786 -2.4968 2.3513 9.4429 10.0273 -9.5864 0 20.3661 22.8234 0 19.91 -9.5558 -0.0001 0 3.4296 22.8641 0 0 -3.4296 -9.8785 0 0 -19.9099 10.042 -11.2536c1.917,1.2648 4.1697,1.9492 6.4956,1.9492 6.5089,0 11.8041,-5.2954 11.8041,-11.8042 0,-6.5087 -5.2954,-11.8042 -11.8042,-11.8042zm-8.4189 18.6634l-19.6671 0 -4.5906 -5.1444 28.8481 0 -4.5904 5.1444z"/>
    </g>
   </g>
   <g>
   </g>
   <g>
   </g>
   <g>
   </g>
   <g>
   </g>
   <g>
   </g>
   <g>
   </g>
   <g>
   </g>
   <g>
   </g>
   <g>
   </g>
   <g>
   </g>
   <g>
   </g>
   <g>
   </g>
   <g>
   </g>
   <g>
   </g>
   <g>
   </g>
  </g>
 </g>
</svg>
