<?xml version="1.0" encoding="UTF-8"?>
<!DOCTYPE svg PUBLIC "-//W3C//DTD SVG 1.1//EN" "http://www.w3.org/Graphics/SVG/1.1/DTD/svg11.dtd">
<!-- Creator: CorelDRAW X5 -->
<svg xmlns="http://www.w3.org/2000/svg" xml:space="preserve" width="105mm" height="105mm" style="shape-rendering:geometricPrecision; text-rendering:geometricPrecision; image-rendering:optimizeQuality; fill-rule:evenodd; clip-rule:evenodd"
viewBox="0 0 105 105"
 xmlns:xlink="http://www.w3.org/1999/xlink"
 version="1.1">
 <defs>
  <style type="text/css">
   <![CDATA[
    .str0 {stroke:#097A5E;stroke-width:0.5}
    .fil1 {fill:white}
    .fil0 {fill:#07B290}
   ]]>
  </style>
 </defs>
 <g id="Слой_x0020_1">
  <metadata id="CorelCorpID_0Corel-Layer"/>
  <circle class="fil0 str0" cx="51.482" cy="52.2651" r="41.3245"/>
  <g id="students-cap.svg">
   <g>
    <path id="_377724024" class="fil1" d="M51.516 58.5941l-19.9068 -6.127 0 6.0279 0 4.2052c0,4.7308 8.9155,8.5664 19.9127,8.5664 10.9967,0 19.9138,-3.8356 19.9138,-8.5664 0,-0.0372 -0.0123,-0.0746 -0.013,-0.1111l0 -10.122 -19.9067 6.127z"/>
    <path id="_377723112" class="fil1" d="M18.1498 45.423l7.1117 2.5439 0.606 -1.298 2.6126 -0.222 0.3726 0.3875 -2.2419 0.5317 -0.3268 0.9671c-0.0006,0 -5.064,10.5857 -4.3203,15.7642 0,0 3.1606,1.8853 6.3198,0l0.8396 -14.1587 0 -1.1786 4.7028 -1.0609 -0.3322 0.818 -3.5063 1.1401 1.6217 0.5794 19.9068 6.127 19.9066 -6.127 13.4592 -4.8137 -33.3658 -12.8367 -33.3661 12.8367z"/>
   </g>
   <g>
   </g>
   <g>
   </g>
   <g>
   </g>
   <g>
   </g>
   <g>
   </g>
   <g>
   </g>
   <g>
   </g>
   <g>
   </g>
   <g>
   </g>
   <g>
   </g>
   <g>
   </g>
   <g>
   </g>
   <g>
   </g>
   <g>
   </g>
   <g>
   </g>
  </g>
 </g>
</svg>
