<?xml version="1.0" encoding="UTF-8"?>
<!DOCTYPE svg PUBLIC "-//W3C//DTD SVG 1.1//EN" "http://www.w3.org/Graphics/SVG/1.1/DTD/svg11.dtd">
<!-- Creator: CorelDRAW X5 -->
<svg xmlns="http://www.w3.org/2000/svg" xml:space="preserve" width="105mm" height="105mm" style="shape-rendering:geometricPrecision; text-rendering:geometricPrecision; image-rendering:optimizeQuality; fill-rule:evenodd; clip-rule:evenodd"
viewBox="0 0 105 105"
 xmlns:xlink="http://www.w3.org/1999/xlink"
 version="1.1">
 <defs>
  <style type="text/css">
   <![CDATA[
    .str0 {stroke:#E21883;stroke-width:0.5}
    .fil1 {fill:white}
    .fil0 {fill:#FB78B2}
   ]]>
  </style>
 </defs>
 <g id="Слой_x0020_1">
  <metadata id="CorelCorpID_0Corel-Layer"/>
  <circle class="fil0 str0" cx="51.482" cy="52.2651" r="41.3245"/>
  <g id="pawprint.svg">
   <g id="XMLID_312_">
    <path id="XMLID_317_" class="fil1" d="M63.5737 52.3006c-2.6053,-4.0646 -7.1011,-6.5232 -11.9282,-6.5232 -4.8265,0 -9.3223,2.4585 -11.9275,6.5232l-7.1721 11.1881c-1.9642,3.0646 -1.6899,7.0542 0.6738,9.8208 2.3668,2.7668 6.2654,3.6579 9.5993,2.1927l0.0023 -0.002c5.6235,-2.4717 12.0259,-2.4717 17.651,0.002 3.3319,1.4652 7.2305,0.5752 9.5975,-2.1916 2.3658,-2.7666 2.6401,-6.7572 0.6759,-9.8218l-7.172 -11.1882z"/>
    <path id="XMLID_316_" class="fil1" d="M33.9417 51.2218c3.297,-1.2669 4.7613,-5.4329 3.2722,-9.3011 -1.49,-3.8674 -5.3696,-5.9773 -8.6629,-4.7084 -3.2944,1.2667 -4.7566,5.4319 -3.2702,9.3009 1.4907,3.8663 5.3706,5.9772 8.6609,4.7086z"/>
    <path id="XMLID_315_" class="fil1" d="M46.8909 44.2166c4.2944,0 7.7772,-4.0892 7.7772,-9.131 0,-5.044 -3.4828,-9.1331 -7.7772,-9.1331 -4.2933,0 -7.7762,4.089 -7.7762,9.1331 0,5.0418 3.4829,9.131 7.7762,9.131z"/>
    <path id="XMLID_314_" class="fil1" d="M61.3912 46.9306c4.0753,1.3543 8.6707,-1.4285 10.2612,-6.2131 1.5915,-4.7853 -0.4254,-9.7645 -4.4982,-11.1186 -4.0755,-1.3541 -8.6708,1.4285 -10.2601,6.2139 -1.5906,4.7855 0.4242,9.7636 4.4971,11.1178z"/>
    <path id="XMLID_313_" class="fil1" d="M79.8623 45.5575c-2.8403,-2.0984 -7.1394,-1.1013 -9.6065,2.2312 -2.4642,3.3335 -2.1619,7.7374 0.6729,9.8359 2.8339,2.0996 7.1381,1.1016 9.6066,-2.2303 2.4641,-3.3333 2.1609,-7.7381 -0.673,-9.8368z"/>
   </g>
   <g>
   </g>
   <g>
   </g>
   <g>
   </g>
   <g>
   </g>
   <g>
   </g>
   <g>
   </g>
   <g>
   </g>
   <g>
   </g>
   <g>
   </g>
   <g>
   </g>
   <g>
   </g>
   <g>
   </g>
   <g>
   </g>
   <g>
   </g>
   <g>
   </g>
  </g>
 </g>
</svg>
