<?xml version="1.0" encoding="UTF-8"?>
<!DOCTYPE svg PUBLIC "-//W3C//DTD SVG 1.1//EN" "http://www.w3.org/Graphics/SVG/1.1/DTD/svg11.dtd">
<!-- Creator: CorelDRAW X5 -->
<svg xmlns="http://www.w3.org/2000/svg" xml:space="preserve" width="105mm" height="105mm" style="shape-rendering:geometricPrecision; text-rendering:geometricPrecision; image-rendering:optimizeQuality; fill-rule:evenodd; clip-rule:evenodd"
viewBox="0 0 105 105"
 xmlns:xlink="http://www.w3.org/1999/xlink"
 version="1.1">
 <defs>
  <style type="text/css">
   <![CDATA[
    .str0 {stroke:#D1A410;stroke-width:0.5}
    .fil0 {fill:#FFC919}
    .fil1 {fill:white}
   ]]>
  </style>
 </defs>
 <g id="Слой_x0020_1">
  <metadata id="CorelCorpID_0Corel-Layer"/>
  <circle class="fil0 str0" cx="51.482" cy="52.2651" r="41.3245"/>
  <g id="shopping-basket.svg">
   <g>
    <g>
     <path id="_387327616" class="fil1" d="M62.8703 40.3922l4.7817 0 -7.0886 -12.1615c-0.5711,-0.9855 -1.8365,-1.3214 -2.822,-0.7391 -0.9854,0.5711 -1.3214,1.8365 -0.739,2.822l5.8679 10.0786z"/>
     <path id="_387327064" class="fil1" d="M46.6437 30.3136c0.5711,-0.9854 0.2464,-2.2509 -0.7391,-2.822 -0.9854,-0.571 -2.2509,-0.2463 -2.822,0.7391l-7.0886 12.1727 4.7817 0 5.868 -10.0898z"/>
     <path id="_387327352" class="fil1" d="M75.5693 44.1213l-47.5262 0c-1.9373,0 -3.5051,1.5678 -3.5051,3.5051l0 3.8859c0,1.9373 1.5678,3.5051 3.5051,3.5051l1.0975 0 3.3819 18.3319c0.4255,2.1612 2.3965,3.8746 4.4458,3.8746l1.3438 0 8.8244 0c0.8958,0 2.0605,0 3.2475,0l0 0 1.0751 0 1.075 0 0 0c1.1871,0 2.3517,0 3.2476,0l8.8243 0 1.3438 0c2.0494,0 4.0203,-1.7134 4.4458,-3.8746l3.4044 -18.3431 1.7805 0c1.9373,0 3.5051,-1.5678 3.5051,-3.5051l0 -3.8859c-0.0112,-1.9261 -1.579,-3.4939 -3.5163,-3.4939zm-31.6804 18.3207l0 7.906c0,1.1311 -0.9183,1.9821 -1.9821,1.9821 -1.1311,0 -1.9821,-0.9182 -1.9821,-1.9821l0 -3.3147 0 -7.7717c0,-1.1311 0.9183,-1.9821 1.9821,-1.9821 1.131,0 1.9821,0.9182 1.9821,1.9821l0 3.1804zm6.3607 0l0 7.906c0,1.1311 -0.9183,1.9821 -1.9821,1.9821 -1.131,0 -1.9821,-0.9182 -1.9821,-1.9821l0 -3.3147 0 -7.7717c0,-1.1311 0.9183,-1.9821 1.9821,-1.9821 1.0638,0 1.9821,0.9182 1.9821,1.9821l0 3.1804zm6.3943 4.5913l0 3.3147c0,1.0639 -0.8511,1.9821 -1.9821,1.9821 -1.0638,0 -1.9821,-0.8511 -1.9821,-1.9821l0 -7.906 0 -3.1804c0,-1.0638 0.9183,-1.9821 1.9821,-1.9821 1.0639,0 1.9821,0.8511 1.9821,1.9821l0 7.7717zm6.3608 0l0 3.3147c0,1.0639 -0.8511,1.9821 -1.9821,1.9821 -1.0639,0 -1.9821,-0.8511 -1.9821,-1.9821l0 -7.906 0 -3.1804c0,-1.0638 0.8511,-1.9821 1.9821,-1.9821 1.0638,0 1.9821,0.8511 1.9821,1.9821l0 7.7717z"/>
    </g>
   </g>
   <g>
   </g>
   <g>
   </g>
   <g>
   </g>
   <g>
   </g>
   <g>
   </g>
   <g>
   </g>
   <g>
   </g>
   <g>
   </g>
   <g>
   </g>
   <g>
   </g>
   <g>
   </g>
   <g>
   </g>
   <g>
   </g>
   <g>
   </g>
   <g>
   </g>
  </g>
 </g>
</svg>
